<svg width="136" height="72" viewBox="0 0 136 72" fill="none" xmlns="http://www.w3.org/2000/svg">
<path fill-rule="evenodd" clip-rule="evenodd" d="M70.7224 0.835856C65.9426 1.86473 58.8445 4.96934 54.0756 8.11632C51.9493 9.52012 50.2093 10.7591 50.2093 10.8704C50.2093 10.9813 51.7665 10.3397 53.6692 9.44436C59.7696 6.57344 72.228 2.21226 72.7644 2.75965C72.8617 2.85852 72.4557 3.58866 71.8631 4.38172C70.7157 5.91733 69.489 8.6008 69.5196 9.50899C69.5301 9.81072 69.9234 9.31212 70.3944 8.40094C71.6857 5.90278 74.6432 3.21332 77.9631 1.51849L80.9374 0L77.6305 0.0299589C75.8121 0.0466503 72.7031 0.409154 70.7224 0.835856ZM41.9901 13.7332C27.6546 15.0399 11.1744 21.8213 2.96487 29.7917C1.84636 30.8775 1.40307 31.4565 1.97973 31.0778C14.1881 23.0616 24.6967 18.9337 37.6277 17.0745C43.1325 16.2831 56.3479 16.3863 62.08 17.2658C71.9264 18.7766 82.7164 21.8388 92.6681 25.9471C99.2537 28.6656 99.2776 28.6751 99.2776 28.473C99.2776 28.1247 91.9794 24.236 87.8212 22.3683C76.6122 17.3343 66.5612 14.6457 55.4328 13.705C49.7912 13.2282 47.4778 13.2329 41.9901 13.7332ZM125.563 15.5774C122.91 16.5819 119.816 18.9165 112.623 25.3428C99.9302 36.6818 97.4348 38.514 89.1926 42.5495C73.3054 50.3269 57.1917 52.2584 37.2083 48.7797C27.3942 47.0716 15.2638 43.3674 5.12513 38.9827C2.38444 37.7971 0.0815805 36.889 0.0077683 36.9643C-0.217443 37.1945 4.49941 40.8333 8.27054 43.3391C18.8945 50.3979 30.2297 54.9538 43.2894 57.4143C49.3093 58.5485 62.1606 58.7851 67.4042 57.8586C80.2471 55.5889 88.9435 52.1869 99.0679 45.4718C102.582 43.141 105.03 40.8765 114.177 31.495C125.185 20.2039 126.847 18.8327 130.4 18.1072L131.684 17.8453L129.77 21.4412C127.187 26.2972 125.457 30.8882 124.598 35.1706C123.922 38.541 123.923 38.9129 124.616 42.0761C125.333 45.3481 128.473 52.4736 129.631 53.4537C129.952 53.7255 129.493 52.5425 128.611 50.825C126.374 46.4698 125.121 41.5968 125.395 38.3197C125.81 33.3564 130.035 24.0481 134.713 17.7939C135.554 16.6705 136.122 15.6305 135.977 15.4824C135.401 14.8935 127.171 14.9688 125.563 15.5774ZM38.2567 21.3377C36.3959 21.5452 37.9254 21.6946 44.1282 21.9107C57.1288 22.3635 68.1687 24.423 77.1914 28.0789C81.0326 29.635 86.0782 32.2808 86.4846 32.9519C86.6029 33.1475 85.5314 34.3865 84.1033 35.7051C79.779 39.6987 70.4368 43.8934 62.5812 45.3682C60.8655 45.6905 61.1624 45.7213 64.2156 45.5368C73.0072 45.0061 83.3543 41.04 87.8497 36.4772C89.1788 35.1287 90.5342 33.4929 90.8614 32.8428C91.5873 31.4009 91.4443 31.2695 86.2942 28.6519C80.1326 25.5195 73.3024 23.4519 64.4685 22.0447C59.7474 21.2927 42.7643 20.8344 38.2567 21.3377ZM27.7498 22.4693C29.3209 26.3699 29.4291 26.9314 29.3997 31.029C29.3741 34.6232 29.1573 35.9671 28.0463 39.4188C26.49 44.2554 26.4518 44.5508 27.572 43.0973C29.1279 41.0789 31.0093 36.3745 31.3134 33.7428C31.8477 29.1202 30.4826 24.1696 28.1369 22.221C27.4772 21.6728 27.4391 21.6972 27.7498 22.4693ZM14.0044 28.2655C12.7395 29.2811 12.2233 31.3962 12.8381 33.0461C13.3137 34.3223 15.2294 35.5228 16.7904 35.5228C18.0259 35.5228 19.9454 34.0493 20.4403 32.7212C20.9386 31.3833 20.1941 28.8531 19.0652 28.0455C17.7621 27.1146 15.3053 27.2212 14.0044 28.2655ZM45.3813 62.2279C50.7784 67.1625 59.5302 70.8115 68.3478 71.8032C70.1352 72.0043 71.596 72.0608 71.5934 71.9282C71.5909 71.7959 70.4292 71.0135 69.0117 70.1897C67.5946 69.3658 65.5207 67.7895 64.403 66.6866C62.0704 64.3845 61.8058 64.5565 63.6607 67.1694C64.3695 68.1683 64.8887 69.0418 64.814 69.1103C64.5762 69.3294 57.2542 66.9507 53.7741 65.5238C51.9288 64.7675 48.8148 63.2858 46.8542 62.2317L43.2894 60.3152L45.3813 62.2279Z" fill="#FC4A23"/>
</svg>
